{
.appVersion = "3148";
.formatVersion = 3;
DisplayStrings = (
"blather on about something",
adb
);
date = "2016-06-11 02:01:29 +0000";
familyName = "Jost* Template";
fontMaster = (
{
customParameters = (
{
name = typoAscender;
value = 1070;
},
{
name = typoDescender;
value = -375;
},
{
name = typoLineGap;
value = 0;
},
{
name = winAscent;
value = 1070;
},
{
name = winDescent;
value = 375;
},
{
name = hheaAscender;
value = 1070;
},
{
name = hheaDescender;
value = -375;
},
{
name = strikeoutPosition;
value = 276;
},
{
name = strikeoutSize;
value = 50;
},
{
name = "Master Icon Glyph Name";
value = a;
}
);
id = m01;
metricValues = (
{
pos = 1070;
},
{
pos = 700;
},
{
pos = 460;
},
{
},
{
pos = -375;
},
{
}
);
name = Regular;
}
);
glyphs = (
{
glyphname = A;
kernLeft = A;
kernRight = A;
layers = (
{
layerId = m01;
shapes = (
{
closed = 1;
nodes = (
(560,0,l),
(655,0,l),
(330,735,l),
(5,0,l),
(100,0,l),
(189,210,l),
(471,210,l)
);
},
{
closed = 1;
nodes = (
(330,542,l),
(437,290,l),
(223,290,l)
);
}
);
width = 660;
}
);
note = A;
unicode = 65;
},
{
glyphname = B;
kernRight = B;
layers = (
{
layerId = m01;
shapes = (
{
closed = 1;
nodes = (
(508,306,o),
(444,363,o),
(352,382,c),
(424,404,o),
(468,453,o),
(468,525,cs),
(468,644,o),
(385,700,o),
(260,700,cs),
(80,700,l),
(80,0,l),
(270,0,ls),
(405,0,o),
(508,66,o),
(508,205,cs)
);
},
{
closed = 1;
nodes = (
(260,625,ls),
(330,625,o),
(383,586,o),
(383,520,cs),
(383,454,o),
(330,417,o),
(260,417,cs),
(165,417,l),
(165,625,l)
);
},
{
closed = 1;
nodes = (
(165,75,l),
(165,343,l),
(270,343,ls),
(360,343,o),
(423,296,o),
(423,210,cs),
(423,124,o),
(360,75,o),
(270,75,cs)
);
}
);
width = 558;
}
);
note = B;
unicode = 66;
},
{
glyphname = C;
kernLeft = C;
kernRight = B;
layers = (
{
layerId = m01;
shapes = (
{
closed = 1;
nodes = (
(130,513,o),
(252,625,o),
(390,625,cs),
(489,625,o),
(566,583,o),
(615,521,c),
(615,633,l),
(556,685,o),
(492,710,o),
(390,710,cs),
(196,710,o),
(40,559,o),
(40,350,cs),
(40,141,o),
(196,-10,o),
(390,-10,cs),
(492,-10,o),
(556,15,o),
(615,67,c),
(615,179,l),
(566,117,o),
(489,75,o),
(390,75,cs),
(252,75,o),
(130,187,o),
(130,350,cs)
);
}
);
width = 685;
}
);
note = C;
unicode = 67;
},
{
glyphname = D;
kernRight = D;
layers = (
{
layerId = m01;
shapes = (
{
closed = 1;
nodes = (
(290,0,ls),
(494,0,o),
(640,141,o),
(640,350,cs),
(640,559,o),
(494,700,o),
(290,700,cs),
(80,700,l),
(80,0,l)
);
},
{
closed = 1;
nodes = (
(290,615,ls),
(448,615,o),
(555,513,o),
(555,350,cs),
(555,187,o),
(448,85,o),
(290,85,cs),
(165,85,l),
(165,615,l)
);
}
);
width = 680;
}
);
note = D;
unicode = 68;
},
{
glyphname = E;
layers = (
{
layerId = m01;
shapes = (
{
closed = 1;
nodes = (
(80,700,l),
(80,0,l),
(480,0,l),
(480,80,l),
(165,80,l),
(165,340,l),
(460,340,l),
(460,420,l),
(165,420,l),
(165,620,l),
(480,620,l),
(480,700,l)
);
}
);
width = 550;
}
);
note = E;
unicode = 69;
},
{
glyphname = F;
kernRight = F;
layers = (
{
layerId = m01;
shapes = (
{
closed = 1;
nodes = (
(80,700,l),
(80,0,l),
(165,0,l),
(165,340,l),
(430,340,l),
(430,420,l),
(165,420,l),
(165,620,l),
(440,620,l),
(440,700,l)
);
}
);
width = 500;
}
);
note = F;
unicode = 70;
},
{
glyphname = G;
kernLeft = C;
kernRight = D;
layers = (
{
layerId = m01;
shapes = (
{
closed = 1;
nodes = (
(405,275,l),
(638,275,l),
(615,166,o),
(534,75,o),
(395,75,cs),
(247,75,o),
(130,187,o),
(130,350,cs),
(130,513,o),
(247,625,o),
(395,625,cs),
(502,625,o),
(582,580,o),
(626,506,c),
(686,561,l),
(626,658,o),
(524,710,o),
(395,710,cs),
(191,710,o),
(40,559,o),
(40,350,cs),
(40,141,o),
(191,-10,o),
(395,-10,cs),
(609,-10,o),
(730,161,o),
(730,355,c),
(405,355,l)
);
}
);
width = 775;
}
);
note = G;
unicode = 71;
},
{
glyphname = H;
layers = (
{
layerId = m01;
shapes = (
{
closed = 1;
nodes = (
(80,700,l),
(80,0,l),
(165,0,l),
(165,340,l),
(550,340,l),
(550,0,l),
(635,0,l),
(635,700,l),
(550,700,l),
(550,420,l),
(165,420,l),
(165,700,l)
);
}
);
width = 715;
}
);
note = H;
unicode = 72;
},
{
glyphname = I;
layers = (
{
layerId = m01;
shapes = (
{
closed = 1;
nodes = (
(80,700,l),
(80,0,l),
(165,0,l),
(165,700,l)
);
}
);
width = 245;
}
);
note = I;
unicode = 73;
},
{
glyphname = J;
kernLeft = J;
kernRight = J;
layers = (
{
layerId = m01;
shapes = (
{
closed = 1;
nodes = (
(-111,-170,l),
(-96,-190,o),
(-46,-220,o),
(7,-220,cs),
(101,-220,o),
(160,-169,o),
(160,-60,cs),
(160,700,l),
(80,700,l),
(80,-50,ls),
(80,-116,o),
(42,-140,o),
(12,-140,cs),
(-24,-140,o),
(-53,-127,o),
(-67,-104,c)
);
}
);
width = 240;
}
);
note = J;
unicode = 74;
},
{
glyphname = K;
kernRight = K;
layers = (
{
layerId = m01;
shapes = (
{
closed = 1;
nodes = (
(80,700,l),
(80,0,l),
(165,0,l),
(165,340,l),
(455,0,l),
(560,0,l),
(242,372,l),
(545,700,l),
(440,700,l),
(165,399,l),
(165,700,l)
);
}
);
width = 565;
}
);
note = K;
unicode = 75;
},
{
glyphname = L;
kernRight = A;
layers = (
{
layerId = m01;
shapes = (
{
closed = 1;
nodes = (
(80,700,l),
(80,0,l),
(440,0,l),
(440,80,l),
(165,80,l),
(165,700,l)
);
}
);
width = 450;
}
);
note = L;
unicode = 76;
},
{
glyphname = M;
layers = (
{
layerId = m01;
shapes = (
{
closed = 1;
nodes = (
(177,473,l),
(405,65,l),
(633,473,l),
(685,0,l),
(770,0,l),
(685,735,l),
(405,228,l),
(125,735,l),
(40,0,l),
(125,0,l)
);
}
);
width = 810;
}
);
note = M;
unicode = 77;
},
{
glyphname = N;
layers = (
{
layerId = m01;
shapes = (
{
closed = 1;
nodes = (
(610,700,l),
(610,179,l),
(80,735,l),
(80,0,l),
(165,0,l),
(165,521,l),
(695,-35,l),
(695,700,l)
);
}
);
width = 775;
}
);
note = N;
unicode = 78;
},
{
glyphname = O;
kernLeft = C;
kernRight = D;
layers = (
{
layerId = m01;
shapes = (
{
closed = 1;
nodes = (
(40,146,o),
(191,-10,o),
(395,-10,cs),
(599,-10,o),
(750,146,o),
(750,350,cs),
(750,554,o),
(599,710,o),
(395,710,cs),
(191,710,o),
(40,554,o),
(40,350,cs)
);
},
{
closed = 1;
nodes = (
(130,508,o),
(242,625,o),
(395,625,cs),
(548,625,o),
(660,508,o),
(660,350,cs),
(660,192,o),
(548,75,o),
(395,75,cs),
(242,75,o),
(130,192,o),
(130,350,cs)
);
}
);
width = 790;
}
);
note = O;
unicode = 79;
},
{
glyphname = P;
kernRight = F;
layers = (
{
layerId = m01;
shapes = (
{
closed = 1;
nodes = (
(80,700,l),
(80,0,l),
(165,0,l),
(165,280,l),
(270,280,ls),
(405,280,o),
(508,361,o),
(508,490,cs),
(508,619,o),
(405,700,o),
(270,700,cs)
);
},
{
closed = 1;
nodes = (
(270,620,ls),
(360,620,o),
(423,576,o),
(423,490,cs),
(423,404,o),
(360,360,o),
(270,360,cs),
(165,360,l),
(165,620,l)
);
}
);
width = 548;
}
);
note = P;
unicode = 80;
},
{
glyphname = Q;
kernLeft = C;
layers = (
{
layerId = m01;
shapes = (
{
closed = 1;
nodes = (
(40,146,o),
(191,-10,o),
(395,-10,cs),
(480,-10,o),
(556,17,o),
(615,64,c),
(679,0,l),
(789,0,l),
(671,118,l),
(721,180,o),
(750,260,o),
(750,350,cs),
(750,554,o),
(599,710,o),
(395,710,cs),
(191,710,o),
(40,554,o),
(40,350,cs)
);
},
{
closed = 1;
nodes = (
(130,508,o),
(242,625,o),
(395,625,cs),
(548,625,o),
(660,508,o),
(660,350,cs),
(660,285,o),
(641,227,o),
(608,181,c),
(489,300,l),
(379,300,l),
(553,126,l),
(510,93,o),
(456,75,o),
(395,75,cs),
(242,75,o),
(130,192,o),
(130,350,cs)
);
}
);
width = 790;
}
);
note = Q;
unicode = 81;
},
{
glyphname = R;
layers = (
{
layerId = m01;
shapes = (
{
closed = 1;
nodes = (
(80,700,l),
(80,0,l),
(165,0,l),
(165,280,l),
(250,280,l),
(445,0,l),
(550,0,l),
(341,288,l),
(440,312,o),
(508,385,o),
(508,490,cs),
(508,619,o),
(405,700,o),
(270,700,cs)
);
},
{
closed = 1;
nodes = (
(270,625,ls),
(360,625,o),
(423,576,o),
(423,490,cs),
(423,404,o),
(360,355,o),
(270,355,cs),
(165,355,l),
(165,625,l)
);
}
);
width = 560;
}
);
note = R;
unicode = 82;
},
{
glyphname = S;
layers = (
{
layerId = m01;
shapes = (
{
closed = 1;
nodes = (
(38,166,l),
(83,73,o),
(174,-10,o),
(288,-10,cs),
(399,-10,o),
(503,68,o),
(503,190,cs),
(503,317,o),
(401,372,o),
(326,398,cs),
(203,440,o),
(164,481,o),
(164,540,cs),
(164,585,o),
(197,629,o),
(273,629,cs),
(355,629,o),
(397,573,o),
(424,521,c),
(497,563,l),
(462,636,o),
(391,710,o),
(278,710,cs),
(159,710,o),
(75,633,o),
(75,529,cs),
(75,402,o),
(190,357,o),
(260,332,cs),
(340,303,o),
(415,274,o),
(415,180,cs),
(415,116,o),
(366,70,o),
(291,70,cs),
(207,70,o),
(153,127,o),
(106,212,c)
);
}
);
width = 548;
}
);
note = S;
unicode = 83;
},
{
glyphname = T;
kernLeft = T;
kernRight = T;
layers = (
{
layerId = m01;
shapes = (
{
closed = 1;
nodes = (
(10,620,l),
(190,620,l),
(190,0,l),
(275,0,l),
(275,620,l),
(455,620,l),
(455,700,l),
(10,700,l)
);
}
);
width = 465;
}
);
note = T;
unicode = 84;
},
{
glyphname = U;
layers = (
{
layerId = m01;
shapes = (
{
closed = 1;
nodes = (
(75,700,l),
(75,230,ls),
(75,91,o),
(168,-10,o),
(313,-10,cs),
(458,-10,o),
(551,91,o),
(551,230,cs),
(551,700,l),
(466,700,l),
(466,230,ls),
(466,134,o),
(413,70,o),
(313,70,cs),
(213,70,o),
(160,134,o),
(160,230,cs),
(160,700,l)
);
}
);
width = 626;
}
);
note = U;
unicode = 85;
},
{
glyphname = V;
kernLeft = V;
kernRight = V;
layers = (
{
layerId = m01;
shapes = (
{
closed = 1;
nodes = (
(330,158,l),
(100,700,l),
(5,700,l),
(330,-35,l),
(655,700,l),
(560,700,l)
);
}
);
width = 660;
}
);
note = V;
unicode = 86;
},
{
glyphname = W;
kernLeft = V;
kernRight = V;
layers = (
{
layerId = m01;
shapes = (
{
closed = 1;
nodes = (
(703,185,l),
(495,735,l),
(291,185,l),
(105,700,l),
(10,700,l),
(285,-35,l),
(495,509,l),
(705,-35,l),
(980,700,l),
(885,700,l)
);
}
);
width = 990;
}
);
note = W;
unicode = 87;
},
{
glyphname = X;
kernLeft = X;
kernRight = K;
layers = (
{
layerId = m01;
shapes = (
{
closed = 1;
nodes = (
(430,700,l),
(281,441,l),
(135,700,l),
(35,700,l),
(238,367,l),
(10,0,l),
(110,0,l),
(280,293,l),
(445,0,l),
(545,0,l),
(323,367,l),
(530,700,l)
);
}
);
width = 555;
}
);
note = X;
unicode = 88;
},
{
glyphname = Y;
kernLeft = T;
kernRight = T;
layers = (
{
layerId = m01;
shapes = (
{
closed = 1;
nodes = (
(461,700,l),
(280,376,l),
(100,700,l),
(5,700,l),
(238,301,l),
(238,0,l),
(323,0,l),
(323,302,l),
(556,700,l)
);
}
);
width = 561;
}
);
note = Y;
unicode = 89;
},
{
glyphname = Z;
kernLeft = X;
kernRight = K;
layers = (
{
layerId = m01;
shapes = (
{
closed = 1;
nodes = (
(35,620,l),
(383,620,l),
(15,0,l),
(505,0,l),
(505,80,l),
(157,80,l),
(525,700,l),
(35,700,l)
);
}
);
width = 545;
}
);
note = Z;
unicode = 90;
},
{
glyphname = a;
kernLeft = a;
kernRight = c;
lastChange = "2023-01-13 18:32:40 +0000";
layers = (
{
layerId = m01;
shapes = (
{
closed = 1;
nodes = (
(35,81,o),
(138,-10,o),
(263,-10,cs),
(335,-10,o),
(392,25,o),
(425,88,c),
(425,0,l),
(500,0,l),
(500,460,l),
(425,460,l),
(425,372,l),
(392,435,o),
(335,470,o),
(263,470,cs),
(138,470,o),
(35,379,o),
(35,230,cs)
);
},
{
closed = 1;
nodes = (
(116,336,o),
(188,395,o),
(273,395,cs),
(343,395,o),
(420,336,o),
(420,230,cs),
(420,124,o),
(343,65,o),
(273,65,cs),
(188,65,o),
(116,124,o),
(116,230,cs)
);
}
);
width = 570;
}
);
note = a;
unicode = 97;
},
{
glyphname = b;
kernRight = uni042A;
layers = (
{
layerId = m01;
shapes = (
{
closed = 1;
nodes = (
(535,379,o),
(432,470,o),
(307,470,cs),
(239,470,o),
(184,438,o),
(150,381,c),
(150,780,l),
(70,780,l),
(70,0,l),
(150,0,l),
(150,79,l),
(184,22,o),
(239,-10,o),
(307,-10,cs),
(432,-10,o),
(535,81,o),
(535,230,cs)
);
},
{
closed = 1;
nodes = (
(454,124,o),
(382,65,o),
(297,65,cs),
(227,65,o),
(150,124,o),
(150,230,cs),
(150,336,o),
(227,395,o),
(297,395,cs),
(382,395,o),
(454,336,o),
(454,230,cs)
);
}
);
width = 570;
}
);
note = b;
unicode = 98;
},
{
glyphname = c;
kernLeft = c;
kernRight = c;
layers = (
{
layerId = m01;
shapes = (
{
closed = 1;
nodes = (
(111,326,o),
(178,395,o),
(268,395,cs),
(342,395,o),
(407,356,o),
(428,311,c),
(428,411,l),
(396,448,o),
(331,470,o),
(268,470,cs),
(133,470,o),
(30,369,o),
(30,230,cs),
(30,91,o),
(133,-10,o),
(268,-10,cs),
(331,-10,o),
(396,11,o),
(428,49,c),
(428,149,l),
(407,104,o),
(342,65,o),
(268,65,cs),
(178,65,o),
(111,134,o),
(111,230,cs)
);
}
);
width = 478;
}
);
note = c;
unicode = 99;
},
{
glyphname = d;
layers = (
{
layerId = m01;
shapes = (
{
closed = 1;
nodes = (
(35,81,o),
(138,-10,o),
(263,-10,cs),
(331,-10,o),
(386,22,o),
(420,79,c),
(420,0,l),
(500,0,l),
(500,780,l),
(420,780,l),
(420,381,l),
(386,438,o),
(331,470,o),
(263,470,cs),
(138,470,o),
(35,379,o),
(35,230,cs)
);
},
{
closed = 1;
nodes = (
(116,336,o),
(188,395,o),
(273,395,cs),
(343,395,o),
(420,336,o),
(420,230,cs),
(420,124,o),
(343,65,o),
(273,65,cs),
(188,65,o),
(116,124,o),
(116,230,cs)
);
}
);
width = 570;
}
);
note = d;
unicode = 100;
},
{
glyphname = e;
kernLeft = c;
kernRight = uni042A;
layers = (
{
layerId = m01;
shapes = (
{
closed = 1;
nodes = (
(351,-10,o),
(424,29,o),
(472,107,c),
(407,148,l),
(373,92,o),
(325,65,o),
(263,65,cs),
(177,65,o),
(124,117,o),
(117,210,c),
(479,210,l),
(479,212,o),
(480,224,o),
(480,234,cs),
(480,380,o),
(398,470,o),
(263,470,cs),
(127,470,o),
(35,373,o),
(35,230,cs),
(35,88,o),
(124,-10,o),
(253,-10,cs)
);
},
{
closed = 1;
nodes = (
(337,400,o),
(387,352,o),
(393,278,c),
(120,278,l),
(134,356,o),
(184,400,o),
(263,400,cs)
);
}
);
width = 515;
}
);
note = e;
unicode = 101;
},
{
glyphname = f;
layers = (
{
layerId = m01;
shapes = (
{
closed = 1;
nodes = (
(40,460,l),
(40,385,l),
(85,385,l),
(85,0,l),
(165,0,l),
(165,385,l),
(270,385,l),
(270,460,l),
(165,460,l),
(165,620,ls),
(165,686,o),
(183,710,o),
(213,710,cs),
(229,710,o),
(248,707,o),
(262,684,c),
(306,750,l),
(291,770,o),
(261,790,o),
(218,790,cs),
(134,790,o),
(85,739,o),
(85,630,cs),
(85,460,l)
);
}
);
width = 286;
}
);
note = f;
unicode = 102;
},
{
glyphname = g;
kernLeft = c;
kernRight = g;
layers = (
{
layerId = m01;
shapes = (
{
closed = 1;
nodes = (
(44,-30,l),
(44,-149,o),
(137,-230,o),
(272,-230,cs),
(387,-230,o),
(500,-149,o),
(500,10,cs),
(500,460,l),
(420,460,l),
(420,381,l),
(386,438,o),
(331,470,o),
(263,470,cs),
(138,470,o),
(35,379,o),
(35,230,cs),
(35,81,o),
(138,-10,o),
(263,-10,cs),
(331,-10,o),
(386,22,o),
(420,79,c),
(420,10,ls),
(420,-106,o),
(342,-155,o),
(272,-155,cs),
(182,-155,o),
(125,-96,o),
(125,-30,c)
);
},
{
closed = 1;
nodes = (
(116,336,o),
(188,395,o),
(273,395,cs),
(343,395,o),
(420,336,o),
(420,230,cs),
(420,124,o),
(343,65,o),
(273,65,cs),
(188,65,o),
(116,124,o),
(116,230,cs)
);
}
);
width = 570;
}
);
note = g;
unicode = 103;
},
{
glyphname = h;
kernRight = a;
layers = (
{
layerId = m01;
shapes = (
{
closed = 1;
nodes = (
(370,0,l),
(450,0,l),
(450,290,ls),
(450,409,o),
(387,470,o),
(292,470,cs),
(232,470,o),
(183,438,o),
(155,387,c),
(155,780,l),
(75,780,l),
(75,0,l),
(155,0,l),
(155,280,ls),
(155,346,o),
(202,395,o),
(272,395,cs),
(337,395,o),
(370,356,o),
(370,280,cs)
);
}
);
width = 525;
}
);
note = h;
unicode = 104;
},
{
glyphname = i;
layers = (
{
layerId = m01;
shapes = (
{
closed = 1;
nodes = (
(75,620,o),
(100,595,o),
(130,595,cs),
(160,595,o),
(185,620,o),
(185,650,cs),
(185,680,o),
(160,705,o),
(130,705,cs),
(100,705,o),
(75,680,o),
(75,650,cs)
);
},
{
closed = 1;
nodes = (
(90,460,l),
(90,0,l),
(170,0,l),
(170,460,l)
);
}
);
width = 260;
}
);
note = i;
unicode = 105;
},
{
glyphname = j;
kernLeft = J;
kernRight = J;
layers = (
{
layerId = m01;
shapes = (
{
closed = 1;
nodes = (
(62,620,o),
(86,596,o),
(116,596,cs),
(146,596,o),
(170,620,o),
(170,650,cs),
(170,680,o),
(146,704,o),
(116,704,cs),
(86,704,o),
(62,680,o),
(62,650,cs)
);
},
{
closed = 1;
nodes = (
(-61,-180,l),
(-41,-207,o),
(-13,-220,o),
(27,-220,cs),
(111,-220,o),
(160,-161,o),
(160,-60,cs),
(160,460,l),
(80,460,l),
(80,-50,ls),
(80,-114,o),
(66,-140,o),
(32,-140,cs),
(11,-140,o),
(-7,-130,o),
(-17,-114,c)
);
}
);
width = 250;
}
);
note = j;
unicode = 106;
},
{
glyphname = k;
kernRight = k;
layers = (
{
layerId = m01;
shapes = (
{
closed = 1;
nodes = (
(320,460,l),
(150,299,l),
(150,780,l),
(70,780,l),
(70,0,l),
(150,0,l),
(150,233,l),
(340,0,l),
(440,0,l),
(220,270,l),
(420,460,l)
);
}
);
width = 440;
}
);
note = k;
unicode = 107;
},
{
glyphname = l;
layers = (
{
layerId = m01;
shapes = (
{
closed = 1;
nodes = (
(75,780,l),
(75,0,l),
(155,0,l),
(155,780,l)
);
}
);
width = 230;
}
);
note = l;
unicode = 108;
},
{
glyphname = m;
kernLeft = m;
kernRight = a;
layers = (
{
layerId = m01;
shapes = (
{
closed = 1;
nodes = (
(705,290,ls),
(705,404,o),
(651,470,o),
(557,470,cs),
(495,470,o),
(447,441,o),
(415,384,c),
(394,439,o),
(346,470,o),
(282,470,cs),
(225,470,o),
(183,445,o),
(155,393,c),
(155,460,l),
(75,460,l),
(75,0,l),
(155,0,l),
(155,280,ls),
(155,352,o),
(196,395,o),
(262,395,cs),
(322,395,o),
(350,359,o),
(350,280,cs),
(350,0,l),
(430,0,l),
(430,280,ls),
(430,352,o),
(471,395,o),
(537,395,cs),
(597,395,o),
(625,359,o),
(625,280,cs),
(625,0,l),
(705,0,l)
);
}
);
width = 780;
}
);
note = m;
unicode = 109;
},
{
glyphname = n;
kernLeft = m;
kernRight = a;
layers = (
{
layerId = m01;
shapes = (
{
closed = 1;
nodes = (
(370,0,l),
(450,0,l),
(450,290,ls),
(450,401,o),
(389,470,o),
(292,470,cs),
(232,470,o),
(186,444,o),
(155,388,c),
(155,460,l),
(75,460,l),
(75,0,l),
(155,0,l),
(155,280,ls),
(155,348,o),
(202,395,o),
(272,395,cs),
(336,395,o),
(370,356,o),
(370,280,cs)
);
}
);
width = 525;
}
);
note = n;
unicode = 110;
},
{
glyphname = o;
kernLeft = c;
kernRight = uni042A;
layers = (
{
layerId = m01;
shapes = (
{
closed = 1;
nodes = (
(35,91,o),
(138,-10,o),
(273,-10,cs),
(408,-10,o),
(511,91,o),
(511,230,cs),
(511,369,o),
(408,470,o),
(273,470,cs),
(138,470,o),
(35,369,o),
(35,230,cs)
);
},
{
closed = 1;
nodes = (
(116,326,o),
(183,395,o),
(273,395,cs),
(363,395,o),
(430,326,o),
(430,230,cs),
(430,134,o),
(363,65,o),
(273,65,cs),
(183,65,o),
(116,134,o),
(116,230,cs)
);
}
);
width = 546;
}
);
note = o;
unicode = 111;
},
{
glyphname = p;
kernLeft = m;
kernRight = uni042A;
layers = (
{
layerId = m01;
shapes = (
{
closed = 1;
nodes = (
(150,-220,l),
(150,79,l),
(184,22,o),
(239,-10,o),
(307,-10,cs),
(432,-10,o),
(535,81,o),
(535,230,cs),
(535,379,o),
(432,470,o),
(307,470,cs),
(239,470,o),
(184,438,o),
(150,381,c),
(150,460,l),
(70,460,l),
(70,-220,l)
);
},
{
closed = 1;
nodes = (
(454,124,o),
(382,65,o),
(297,65,cs),
(227,65,o),
(150,124,o),
(150,230,cs),
(150,336,o),
(227,395,o),
(297,395,cs),
(382,395,o),
(454,336,o),
(454,230,cs)
);
}
);
width = 570;
}
);
note = p;
unicode = 112;
},
{
glyphname = q;
kernLeft = c;
kernRight = g;
layers = (
{
layerId = m01;
shapes = (
{
closed = 1;
nodes = (
(35,81,o),
(138,-10,o),
(263,-10,cs),
(331,-10,o),
(386,22,o),
(420,79,c),
(420,-220,l),
(500,-220,l),
(500,460,l),
(420,460,l),
(420,381,l),
(386,438,o),
(331,470,o),
(263,470,cs),
(138,470,o),
(35,379,o),
(35,230,cs)
);
},
{
closed = 1;
nodes = (
(116,336,o),
(188,395,o),
(273,395,cs),
(343,395,o),
(420,336,o),
(420,230,cs),
(420,124,o),
(343,65,o),
(273,65,cs),
(188,65,o),
(116,124,o),
(116,230,cs)
);
}
);
width = 570;
}
);
note = q;
unicode = 113;
},
{
glyphname = r;
kernLeft = m;
kernRight = r;
layers = (
{
layerId = m01;
shapes = (
{
closed = 1;
nodes = (
(338,438,l),
(314,463,o),
(285,470,o),
(252,470,cs),
(217,470,o),
(181,446,o),
(155,407,c),
(155,460,l),
(75,460,l),
(75,0,l),
(155,0,l),
(155,280,ls),
(155,346,o),
(172,395,o),
(232,395,cs),
(258,395,o),
(272,388,o),
(294,372,c)
);
}
);
width = 343;
}
);
note = r;
unicode = 114;
},
{
glyphname = s;
kernLeft = a;
kernRight = a;
layers = (
{
layerId = m01;
shapes = (
{
closed = 1;
nodes = (
(31,102,l),
(56,47,o),
(123,-10,o),
(215,-10,cs),
(309,-10,o),
(373,50,o),
(373,130,cs),
(373,212,o),
(308,243,o),
(228,276,cs),
(179,296,o),
(132,317,o),
(132,354,cs),
(132,385,o),
(160,399,o),
(193,399,cs),
(241,399,o),
(280,373,o),
(305,339,c),
(369,380,l),
(341,431,o),
(276,470,o),
(203,470,cs),
(128,470,o),
(54,431,o),
(54,349,cs),
(54,268,o),
(125,234,o),
(186,211,cs),
(239,191,o),
(292,169,o),
(292,121,cs),
(292,85,o),
(264,63,o),
(219,63,cs),
(162,63,o),
(122,98,o),
(94,141,c)
);
}
);
width = 403;
}
);
note = s;
unicode = 115;
},
{
glyphname = t;
layers = (
{
layerId = m01;
shapes = (
{
closed = 1;
nodes = (
(5,460,l),
(5,385,l),
(80,385,l),
(80,0,l),
(160,0,l),
(160,385,l),
(235,385,l),
(235,460,l),
(160,460,l),
(160,620,l),
(80,620,l),
(80,460,l)
);
}
);
width = 240;
}
);
note = t;
unicode = 116;
},
{
glyphname = u;
kernLeft = u;
kernRight = c;
layers = (
{
layerId = m01;
shapes = (
{
closed = 1;
nodes = (
(155,460,l),
(75,460,l),
(75,170,ls),
(75,60,o),
(137,-10,o),
(233,-10,cs),
(294,-10,o),
(339,17,o),
(370,72,c),
(370,0,l),
(450,0,l),
(450,460,l),
(370,460,l),
(370,180,ls),
(370,112,o),
(323,65,o),
(253,65,cs),
(189,65,o),
(155,106,o),
(155,180,cs)
);
}
);
width = 525;
}
);
note = u;
unicode = 117;
},
{
glyphname = v;
kernLeft = v;
kernRight = r;
layers = (
{
layerId = m01;
shapes = (
{
closed = 1;
nodes = (
(0,460,l),
(220,-35,l),
(440,460,l),
(350,460,l),
(220,135,l),
(90,460,l)
);
}
);
width = 440;
}
);
note = v;
unicode = 118;
},
{
glyphname = w;
kernLeft = v;
kernRight = r;
layers = (
{
layerId = m01;
shapes = (
{
closed = 1;
nodes = (
(5,460,l),
(205,-35,l),
(336,300,l),
(475,-35,l),
(675,460,l),
(585,460,l),
(469,159,l),
(335,495,l),
(210,161,l),
(95,460,l)
);
}
);
width = 680;
}
);
note = w;
unicode = 119;
},
{
glyphname = x;
kernLeft = x;
kernRight = k;
layers = (
{
layerId = m01;
shapes = (
{
closed = 1;
nodes = (
(320,460,l),
(210,300,l),
(100,460,l),
(10,460,l),
(167,237,l),
(0,0,l),
(90,0,l),
(210,174,l),
(330,0,l),
(420,0,l),
(253,237,l),
(410,460,l)
);
}
);
width = 420;
}
);
note = x;
unicode = 120;
},
{
glyphname = y;
kernLeft = v;
kernRight = r;
layers = (
{
layerId = m01;
shapes = (
{
closed = 1;
nodes = (
(440,460,l),
(350,460,l),
(224,143,l),
(95,460,l),
(0,460,l),
(176,65,l),
(50,-220,l),
(140,-220,l)
);
}
);
width = 440;
}
);
note = y;
unicode = 121;
},
{
glyphname = z;
kernLeft = x;
kernRight = k;
layers = (
{
layerId = m01;
shapes = (
{
closed = 1;
nodes = (
(300,385,l),
(15,0,l),
(425,0,l),
(425,75,l),
(160,75,l),
(445,460,l),
(45,460,l),
(45,385,l)
);
}
);
width = 460;
}
);
note = z;
unicode = 122;
},
{
glyphname = zero;
layers = (
{
layerId = m01;
shapes = (
{
closed = 1;
nodes = (
(40,141,o),
(146,-10,o),
(300,-10,cs),
(454,-10,o),
(560,141,o),
(560,350,cs),
(560,559,o),
(454,710,o),
(300,710,cs),
(146,710,o),
(40,559,o),
(40,350,cs)
);
},
{
closed = 1;
nodes = (
(125,513,o),
(192,630,o),
(300,630,cs),
(408,630,o),
(475,513,o),
(475,350,cs),
(475,187,o),
(408,70,o),
(300,70,cs),
(192,70,o),
(125,187,o),
(125,350,cs)
);
}
);
width = 600;
}
);
note = zero;
unicode = 48;
},
{
glyphname = one;
layers = (
{
layerId = m01;
shapes = (
{
closed = 1;
nodes = (
(80,562,l),
(235,608,l),
(235,0,l),
(320,0,l),
(320,710,l),
(80,650,l)
);
}
);
width = 450;
}
);
note = one;
unicode = 49;
},
{
glyphname = two;
layers = (
{
layerId = m01;
shapes = (
{
closed = 1;
nodes = (
(20,0,l),
(514,0,l),
(514,80,l),
(195,80,l),
(418,307,ls),
(473,363,o),
(511,437,o),
(511,509,cs),
(511,593,o),
(443,711,o),
(289,711,cs),
(144,711,o),
(60,609,o),
(60,460,c),
(145,460,l),
(145,566,o),
(199,631,o),
(289,631,cs),
(374,631,o),
(424,567,o),
(424,506,cs),
(424,450,o),
(397,402,o),
(351,353,cs)
);
}
);
width = 569;
}
);
note = two;
unicode = 50;
},
{
glyphname = three;
kernRight = B;
layers = (
{
layerId = m01;
shapes = (
{
closed = 1;
nodes = (
(408,-10,o),
(501,66,o),
(501,185,cs),
(501,284,o),
(444,341,o),
(362,365,c),
(436,395,o),
(481,455,o),
(481,524,cs),
(481,623,o),
(407,710,o),
(287,710,cs),
(172,710,o),
(90,635,o),
(90,526,c),
(171,526,l),
(171,587,o),
(223,633,o),
(288,633,cs),
(358,633,o),
(394,587,o),
(394,521,cs),
(394,455,o),
(343,400,o),
(253,400,c),
(253,325,l),
(343,325,o),
(414,281,o),
(414,195,cs),
(414,119,o),
(363,70,o),
(283,70,cs),
(203,70,o),
(146,119,o),
(146,185,c),
(60,185,l),
(60,76,o),
(148,-10,o),
(283,-10,cs)
);
}
);
width = 546;
}
);
note = three;
unicode = 51;
},
{
glyphname = four;
layers = (
{
layerId = m01;
shapes = (
{
closed = 1;
nodes = (
(20,140,l),
(358,140,l),
(358,0,l),
(443,0,l),
(443,140,l),
(553,140,l),
(553,215,l),
(443,215,l),
(443,700,l),
(408,700,l)
);
},
{
closed = 1;
nodes = (
(160,215,l),
(358,511,l),
(358,215,l)
);
}
);
width = 583;
}
);
note = four;
unicode = 52;
},
{
glyphname = five;
layers = (
{
layerId = m01;
shapes = (
{
closed = 1;
nodes = (
(524,369,o),
(435,466,o),
(315,466,cs),
(280,466,o),
(244,457,o),
(211,440,c),
(258,625,l),
(522,625,l),
(522,700,l),
(192,700,l),
(100,327,l),
(171,377,o),
(212,390,o),
(279,390,cs),
(369,390,o),
(436,326,o),
(436,230,cs),
(436,134,o),
(379,70,o),
(279,70,cs),
(202,70,o),
(133,126,o),
(102,186,c),
(30,137,l),
(76,57,o),
(150,-10,o),
(279,-10,cs),
(414,-10,o),
(524,71,o),
(524,230,cs)
);
}
);
width = 564;
}
);
note = five;
unicode = 53;
},
{
glyphname = six;
layers = (
{
layerId = m01;
shapes = (
{
closed = 1;
nodes = (
(330,700,l),
(94,375,ls),
(67,338,o),
(50,287,o),
(50,230,cs),
(50,86,o),
(153,-10,o),
(288,-10,cs),
(423,-10,o),
(526,86,o),
(526,230,cs),
(526,359,o),
(433,457,o),
(319,457,cs),
(288,457,o),
(262,453,o),
(240,440,c),
(437,700,l)
);
},
{
closed = 1;
nodes = (
(131,326,o),
(198,395,o),
(288,395,cs),
(378,395,o),
(445,326,o),
(445,230,cs),
(445,134,o),
(378,67,o),
(288,67,cs),
(198,67,o),
(131,134,o),
(131,230,cs)
);
}
);
width = 576;
}
);
note = six;
unicode = 54;
},
{
glyphname = seven;
kernLeft = X;
kernRight = V;
layers = (
{
layerId = m01;
shapes = (
{
closed = 1;
nodes = (
(30,620,l),
(393,620,l),
(96,0,l),
(185,0,l),
(520,700,l),
(30,700,l)
);
}
);
width = 525;
}
);
note = seven;
unicode = 55;
},
{
glyphname = eight;
kernRight = B;
layers = (
{
layerId = m01;
shapes = (
{
closed = 1;
nodes = (
(55,81,o),
(148,-10,o),
(273,-10,cs),
(398,-10,o),
(491,81,o),
(491,190,cs),
(491,282,o),
(438,345,o),
(367,373,c),
(428,400,o),
(466,455,o),
(466,531,cs),
(466,630,o),
(383,710,o),
(273,710,cs),
(163,710,o),
(80,630,o),
(80,531,cs),
(80,455,o),
(118,400,o),
(179,373,c),
(108,345,o),
(55,282,o),
(55,190,cs)
);
},
{
closed = 1;
nodes = (
(161,587,o),
(208,635,o),
(273,635,cs),
(338,635,o),
(385,587,o),
(385,521,cs),
(385,455,o),
(333,410,o),
(273,410,cs),
(213,410,o),
(161,455,o),
(161,521,cs)
);
},
{
closed = 1;
nodes = (
(136,276,o),
(203,335,o),
(273,335,cs),
(343,335,o),
(410,276,o),
(410,200,cs),
(410,114,o),
(343,65,o),
(273,65,cs),
(203,65,o),
(136,114,o),
(136,200,cs)
);
}
);
width = 546;
}
);
note = eight;
unicode = 56;
},
{
glyphname = nine;
kernRight = F;
layers = (
{
layerId = m01;
shapes = (
{
closed = 1;
nodes = (
(246,0,l),
(482,325,ls),
(509,362,o),
(526,413,o),
(526,470,cs),
(526,614,o),
(423,710,o),
(288,710,cs),
(153,710,o),
(50,614,o),
(50,470,cs),
(50,341,o),
(143,243,o),
(257,243,cs),
(288,243,o),
(314,247,o),
(336,260,c),
(139,0,l)
);
},
{
closed = 1;
nodes = (
(445,374,o),
(378,305,o),
(288,305,cs),
(198,305,o),
(131,374,o),
(131,470,cs),
(131,566,o),
(198,633,o),
(288,633,cs),
(378,633,o),
(445,566,o),
(445,470,cs)
);
}
);
width = 576;
}
);
note = nine;
unicode = 57;
},
{
glyphname = .notdef;
layers = (
{
layerId = m01;
shapes = (
{
closed = 1;
nodes = (
(450,-200,l),
(450,800,l),
(50,800,l),
(50,-200,l)
);
},
{
closed = 1;
nodes = (
(100,750,l),
(400,750,l),
(400,-150,l),
(100,-150,l)
);
}
);
width = 500;
}
);
note = ".notdef";
},
{
glyphname = period;
kernLeft = A;
layers = (
{
layerId = m01;
shapes = (
{
closed = 1;
nodes = (
(95,10,o),
(120,-15,o),
(150,-15,cs),
(180,-15,o),
(205,10,o),
(205,40,cs),
(205,70,o),
(180,95,o),
(150,95,cs),
(120,95,o),
(95,70,o),
(95,40,cs)
);
}
);
width = 300;
}
);
note = period;
unicode = 46;
},
{
glyphname = comma;
kernLeft = A;
layers = (
{
layerId = m01;
shapes = (
{
closed = 1;
nodes = (
(148,110,l),
(60,-149,l),
(118,-170,l),
(228,80,l)
);
}
);
width = 308;
}
);
note = comma;
unicode = 44;
},
{
glyphname = colon;
layers = (
{
layerId = m01;
shapes = (
{
closed = 1;
nodes = (
(95,390,o),
(120,365,o),
(150,365,cs),
(180,365,o),
(205,390,o),
(205,420,cs),
(205,450,o),
(180,475,o),
(150,475,cs),
(120,475,o),
(95,450,o),
(95,420,cs)
);
},
{
closed = 1;
nodes = (
(95,10,o),
(120,-15,o),
(150,-15,cs),
(180,-15,o),
(205,10,o),
(205,40,cs),
(205,70,o),
(180,95,o),
(150,95,cs),
(120,95,o),
(95,70,o),
(95,40,cs)
);
}
);
width = 300;
}
);
note = colon;
unicode = 58;
},
{
glyphname = semicolon;
layers = (
{
layerId = m01;
shapes = (
{
closed = 1;
nodes = (
(125,390,o),
(150,365,o),
(180,365,cs),
(210,365,o),
(235,390,o),
(235,420,cs),
(235,450,o),
(210,475,o),
(180,475,cs),
(150,475,o),
(125,450,o),
(125,420,cs)
);
},
{
closed = 1;
nodes = (
(148,110,l),
(60,-149,l),
(118,-170,l),
(228,80,l)
);
}
);
width = 330;
}
);
note = semicolon;
unicode = 59;
},
{
glyphname = ellipsis;
layers = (
{
layerId = m01;
shapes = (
{
closed = 1;
nodes = (
(95,10,o),
(120,-15,o),
(150,-15,cs),
(180,-15,o),
(205,10,o),
(205,40,cs),
(205,70,o),
(180,95,o),
(150,95,cs),
(120,95,o),
(95,70,o),
(95,40,cs)
);
},
{
closed = 1;
nodes = (
(395,10,o),
(420,-15,o),
(450,-15,cs),
(480,-15,o),
(505,10,o),
(505,40,cs),
(505,70,o),
(480,95,o),
(450,95,cs),
(420,95,o),
(395,70,o),
(395,40,cs)
);
},
{
closed = 1;
nodes = (
(695,10,o),
(720,-15,o),
(750,-15,cs),
(780,-15,o),
(805,10,o),
(805,40,cs),
(805,70,o),
(780,95,o),
(750,95,cs),
(720,95,o),
(695,70,o),
(695,40,cs)
);
}
);
width = 900;
}
);
note = ellipsis;
unicode = 8230;
},
{
glyphname = exclam;
layers = (
{
layerId = m01;
shapes = (
{
closed = 1;
nodes = (
(100,700,l),
(120,200,l),
(180,200,l),
(200,700,l)
);
},
{
closed = 1;
nodes = (
(95,10,o),
(120,-15,o),
(150,-15,cs),
(180,-15,o),
(205,10,o),
(205,40,cs),
(205,70,o),
(180,95,o),
(150,95,cs),
(120,95,o),
(95,70,o),
(95,40,cs)
);
}
);
width = 300;
}
);
note = exclam;
unicode = 33;
},
{
glyphname = question;
kernRight = F;
layers = (
{
layerId = m01;
shapes = (
{
closed = 1;
nodes = (
(416,424,o),
(344,345,o),
(224,345,cs),
(198,345,l),
(218,170,l),
(278,170,l),
(285,290,l),
(396,296,o),
(497,385,o),
(497,500,cs),
(497,619,o),
(404,710,o),
(279,710,cs),
(160,710,o),
(106,663,o),
(60,593,c),
(125,552,l),
(156,602,o),
(202,635,o),
(269,635,cs),
(359,635,o),
(416,586,o),
(416,500,cs)
);
},
{
closed = 1;
nodes = (
(195,10,o),
(220,-15,o),
(250,-15,cs),
(280,-15,o),
(305,10,o),
(305,40,cs),
(305,70,o),
(280,95,o),
(250,95,cs),
(220,95,o),
(195,70,o),
(195,40,cs)
);
}
);
width = 557;
}
);
note = question;
unicode = 63;
},
{
glyphname = bullet;
layers = (
{
layerId = m01;
shapes = (
{
closed = 1;
nodes = (
(95,385,o),
(120,360,o),
(150,360,cs),
(180,360,o),
(205,385,o),
(205,415,cs),
(205,445,o),
(180,470,o),
(150,470,cs),
(120,470,o),
(95,445,o),
(95,415,cs)
);
}
);
width = 300;
}
);
note = bullet;
unicode = 8226;
},
{
glyphname = asterisk;
kernLeft = ordfeminine;
kernRight = ordfeminine;
layers = (
{
layerId = m01;
shapes = (
{
closed = 1;
nodes = (
(210,327,l),
(296,459,l),
(382,327,l),
(439,368,l),
(340,491,l),
(492,532,l),
(471,599,l),
(323,542,l),
(331,700,l),
(261,700,l),
(269,542,l),
(121,599,l),
(100,532,l),
(252,491,l),
(153,368,l)
);
}
);
width = 592;
}
);
note = asterisk;
unicode = 42;
},
{
glyphname = numbersign;
layers = (
{
layerId = m01;
shapes = (
{
closed = 1;
nodes = (
(35,200,l),
(124,200,l),
(75,0,l),
(150,0,l),
(199,200,l),
(333,200,l),
(285,0,l),
(360,0,l),
(409,200,l),
(530,200,l),
(530,265,l),
(424,265,l),
(467,440,l),
(570,440,l),
(570,505,l),
(483,505,l),
(530,700,l),
(455,700,l),
(408,505,l),
(273,505,l),
(320,700,l),
(245,700,l),
(198,505,l),
(75,505,l),
(75,440,l),
(182,440,l),
(139,265,l),
(35,265,l)
);
},
{
closed = 1;
nodes = (
(214,265,l),
(257,440,l),
(392,440,l),
(350,265,l)
);
}
);
width = 605;
}
);
note = numbersign;
unicode = 35;
},
{
glyphname = slash;
kernLeft = A;
kernRight = V;
lastChange = "2023-01-13 18:29:43 +0000";
layers = (
{
layerId = m01;
shapes = (
{
closed = 1;
nodes = (
(15,0,l),
(100,0,l),
(500,700,l),
(415,700,l)
);
}
);
width = 515;
}
);
note = slash;
unicode = 47;
},
{
glyphname = backslash;
kernLeft = V;
kernRight = A;
layers = (
{
layerId = m01;
shapes = (
{
closed = 1;
nodes = (
(15,700,l),
(415,0,l),
(500,0,l),
(100,700,l)
);
}
);
width = 515;
}
);
note = backslash;
unicode = 92;
},
{
glyphname = hyphen;
layers = (
{
layerId = m01;
shapes = (
{
closed = 1;
nodes = (
(5,200,l),
(205,200,l),
(205,275,l),
(5,275,l)
);
}
);
width = 210;
}
);
note = hyphen;
unicode = 45;
},
{
glyphname = endash;
layers = (
{
layerId = m01;
shapes = (
{
closed = 1;
nodes = (
(70,200,l),
(670,200,l),
(670,275,l),
(70,275,l)
);
}
);
width = 740;
}
);
note = endash;
unicode = 8211;
},
{
glyphname = emdash;
layers = (
{
layerId = m01;
shapes = (
{
closed = 1;
nodes = (
(70,200,l),
(820,200,l),
(820,275,l),
(70,275,l)
);
}
);
width = 890;
}
);
note = emdash;
unicode = 8212;
},
{
glyphname = underscore;
layers = (
{
layerId = m01;
shapes = (
{
closed = 1;
nodes = (
(0,-133,l),
(500,-133,l),
(500,-78,l),
(0,-78,l)
);
}
);
width = 500;
}
);
note = underscore;
unicode = 95;
},
{
glyphname = parenleft;
layers = (
{
layerId = m01;
shapes = (
{
closed = 1;
nodes = (
(205,780,l),
(125,630,o),
(90,460,o),
(90,290,cs),
(90,120,o),
(125,-50,o),
(205,-200,c),
(280,-200,l),
(210,-50,o),
(180,120,o),
(180,290,cs),
(180,460,o),
(210,630,o),
(280,780,c)
);
}
);
width = 310;
}
);
note = parenleft;
unicode = 40;
},
{
glyphname = parenright;
layers = (
{
layerId = m01;
shapes = (
{
closed = 1;
nodes = (
(105,-200,l),
(185,-50,o),
(220,120,o),
(220,290,cs),
(220,460,o),
(185,630,o),
(105,780,c),
(30,780,l),
(100,630,o),
(130,460,o),
(130,290,cs),
(130,120,o),
(100,-50,o),
(30,-200,c)
);
}
);
width = 310;
}
);
note = parenright;
unicode = 41;
},
{
glyphname = braceleft;
layers = (
{
layerId = m01;
shapes = (
{
closed = 1;
nodes = (
(178,660,ls),
(178,686,o),
(196,710,o),
(226,710,cs),
(261,710,l),
(261,780,l),
(201,780,ls),
(157,780,o),
(98,739,o),
(98,640,cs),
(98,430,ls),
(98,354,o),
(80,330,o),
(50,320,c),
(50,260,l),
(80,250,o),
(98,226,o),
(98,150,cs),
(98,-60,ls),
(98,-159,o),
(157,-200,o),
(201,-200,cs),
(261,-200,l),
(261,-130,l),
(226,-130,ls),
(196,-130,o),
(178,-106,o),
(178,-80,cs),
(178,90,ls),
(178,164,o),
(175,259,o),
(112,290,c),
(175,321,o),
(178,416,o),
(178,490,cs)
);
}
);
width = 311;
}
);
note = braceleft;
unicode = 123;
},
{
glyphname = braceright;
layers = (
{
layerId = m01;
shapes = (
{
closed = 1;
nodes = (
(142,-80,ls),
(142,-106,o),
(124,-130,o),
(94,-130,cs),
(59,-130,l),
(59,-200,l),
(119,-200,ls),
(163,-200,o),
(222,-159,o),
(222,-60,cs),
(222,150,ls),
(222,226,o),
(240,250,o),
(270,260,c),
(270,320,l),
(240,330,o),
(222,354,o),
(222,430,cs),
(222,640,ls),
(222,739,o),
(163,780,o),
(119,780,cs),
(59,780,l),
(59,710,l),
(94,710,ls),
(124,710,o),
(142,686,o),
(142,660,cs),
(142,490,ls),
(142,416,o),
(145,321,o),
(208,290,c),
(145,259,o),
(142,164,o),
(142,90,cs)
);
}
);
width = 311;
}
);
note = braceright;
unicode = 125;
},
{
glyphname = bracketleft;
layers = (
{
layerId = m01;
shapes = (
{
closed = 1;
nodes = (
(179,705,l),
(280,705,l),
(280,780,l),
(100,780,l),
(100,-220,l),
(280,-220,l),
(280,-145,l),
(179,-145,l)
);
}
);
width = 300;
}
);
note = bracketleft;
unicode = 91;
},
{
glyphname = bracketright;
layers = (
{
layerId = m01;
shapes = (
{
closed = 1;
nodes = (
(121,-145,l),
(20,-145,l),
(20,-220,l),
(200,-220,l),
(200,780,l),
(20,780,l),
(20,705,l),
(121,705,l)
);
}
);
width = 300;
}
);
note = bracketright;
unicode = 93;
},
{
glyphname = quotedblleft;
kernLeft = ordfeminine;
kernRight = ordfeminine;
layers = (
{
layerId = m01;
shapes = (
{
closed = 1;
nodes = (
(165,470,l),
(225,700,l),
(170,700,l),
(70,470,l)
);
},
{
closed = 1;
nodes = (
(365,470,l),
(425,700,l),
(370,700,l),
(270,470,l)
);
}
);
width = 475;
}
);
note = quotedblleft;
unicode = 8220;
},
{
glyphname = quotedblright;
kernLeft = ordfeminine;
kernRight = ordfeminine;
layers = (
{
layerId = m01;
shapes = (
{
closed = 1;
nodes = (
(110,700,l),
(50,470,l),
(105,470,l),
(205,700,l)
);
},
{
closed = 1;
nodes = (
(310,700,l),
(250,470,l),
(305,470,l),
(405,700,l)
);
}
);
width = 475;
}
);
note = quotedblright;
unicode = 8221;
},
{
glyphname = quoteleft;
kernLeft = ordfeminine;
kernRight = ordfeminine;
layers = (
{
layerId = m01;
shapes = (
{
closed = 1;
nodes = (
(165,470,l),
(225,700,l),
(170,700,l),
(70,470,l)
);
}
);
width = 275;
}
);
note = quoteleft;
unicode = 8216;
},
{
glyphname = quoteright;
kernLeft = ordfeminine;
kernRight = ordfeminine;
layers = (
{
layerId = m01;
shapes = (
{
closed = 1;
nodes = (
(110,700,l),
(50,470,l),
(105,470,l),
(205,700,l)
);
}
);
width = 275;
}
);
note = quoteright;
unicode = 8217;
},
{
glyphname = guillemotleft;
layers = (
{
layerId = m01;
shapes = (
{
closed = 1;
nodes = (
(290,259,l),
(440,445,l),
(390,490,l),
(200,255,l),
(390,20,l),
(440,65,l)
);
},
{
closed = 1;
nodes = (
(130,259,l),
(280,445,l),
(230,490,l),
(40,255,l),
(230,20,l),
(280,65,l)
);
}
);
width = 510;
}
);
note = guillemotleft;
unicode = 171;
},
{
glyphname = guillemotright;
layers = (
{
layerId = m01;
shapes = (
{
closed = 1;
nodes = (
(220,251,l),
(70,65,l),
(120,20,l),
(310,255,l),
(120,490,l),
(70,445,l)
);
},
{
closed = 1;
nodes = (
(380,251,l),
(230,65,l),
(280,20,l),
(470,255,l),
(280,490,l),
(230,445,l)
);
}
);
width = 510;
}
);
note = guillemotright;
unicode = 187;
},
{
glyphname = guilsinglleft;
layers = (
{
layerId = m01;
shapes = (
{
closed = 1;
nodes = (
(130,259,l),
(280,445,l),
(230,490,l),
(40,255,l),
(230,20,l),
(280,65,l)
);
}
);
width = 350;
}
);
note = guilsinglleft;
unicode = 8249;
},
{
glyphname = guilsinglright;
layers = (
{
layerId = m01;
shapes = (
{
closed = 1;
nodes = (
(220,251,l),
(70,65,l),
(120,20,l),
(310,255,l),
(120,490,l),
(70,445,l)
);
}
);
width = 350;
}
);
note = guilsinglright;
unicode = 8250;
},
{
glyphname = quotedbl;
kernLeft = ordfeminine;
kernRight = ordfeminine;
layers = (
{
layerId = m01;
shapes = (
{
closed = 1;
nodes = (
(130,700,l),
(80,400,l),
(135,400,l),
(225,700,l)
);
},
{
closed = 1;
nodes = (
(310,700,l),
(260,400,l),
(315,400,l),
(405,700,l)
);
}
);
width = 465;
}
);
note = quotedbl;
unicode = 34;
},
{
glyphname = quotesingle;
kernLeft = ordfeminine;
kernRight = ordfeminine;
layers = (
{
layerId = m01;
shapes = (
{
closed = 1;
nodes = (
(130,700,l),
(80,400,l),
(135,400,l),
(225,700,l)
);
}
);
width = 285;
}
);
note = quotesingle;
unicode = 39;
},
{
glyphname = at;
kernLeft = C;
kernRight = D;
layers = (
{
layerId = m01;
shapes = (
{
closed = 1;
nodes = (
(35,121,o),
(151,-10,o),
(365,-10,cs),
(479,-10,o),
(541,14,o),
(601,50,c),
(566,107,l),
(500,65,o),
(435,55,o),
(365,55,cs),
(207,55,o),
(105,157,o),
(105,320,cs),
(105,503,o),
(227,645,o),
(415,645,cs),
(583,645,o),
(665,523,o),
(665,390,cs),
(665,264,o),
(596,216,o),
(566,216,cs),
(533,216,o),
(527,238,o),
(527,262,cs),
(527,270,o),
(528,282,o),
(529,289,cs),
(570,520,l),
(495,520,l),
(485,453,l),
(467,497,o),
(432,530,o),
(378,530,cs),
(293,530,o),
(190,456,o),
(190,317,cs),
(190,218,o),
(255,160,o),
(328,160,cs),
(384,160,o),
(434,185,o),
(466,233,c),
(472,185,o),
(507,150,o),
(556,150,cs),
(631,150,o),
(735,214,o),
(735,390,cs),
(735,549,o),
(629,710,o),
(415,710,cs),
(191,710,o),
(35,539,o),
(35,320,cs)
);
},
{
closed = 1;
nodes = (
(266,406,o),
(323,460,o),
(378,460,cs),
(428,460,o),
(465,426,o),
(465,370,cs),
(465,264,o),
(398,230,o),
(348,230,cs),
(293,230,o),
(266,264,o),
(266,320,cs)
);
}
);
width = 770;
}
);
note = at;
unicode = 64;
},
{
glyphname = ampersand;
layers = (
{
layerId = m01;
shapes = (
{
closed = 1;
nodes = (
(559,0,l),
(655,0,l),
(543,129,l),
(586,174,o),
(626,226,o),
(664,277,c),
(602,316,l),
(568,269,o),
(532,224,o),
(494,185,c),
(325,380,l),
(408,432,o),
(456,491,o),
(456,554,cs),
(456,638,o),
(393,711,o),
(288,711,cs),
(188,711,o),
(117,650,o),
(117,556,cs),
(117,486,o),
(177,433,o),
(212,396,c),
(139,359,o),
(40,304,o),
(40,183,cs),
(40,64,o),
(150,-10,o),
(265,-10,cs),
(353,-10,o),
(426,26,o),
(490,79,c)
);
},
{
closed = 1;
nodes = (
(201,607,o),
(233,640,o),
(288,640,cs),
(343,640,o),
(375,605,o),
(375,554,cs),
(375,513,o),
(339,470,o),
(279,432,c),
(241,475,o),
(201,512,o),
(201,556,cs)
);
},
{
closed = 1;
nodes = (
(125,267,o),
(194,308,o),
(259,343,c),
(441,135,l),
(388,92,o),
(331,64,o),
(270,64,cs),
(190,64,o),
(125,112,o),
(125,188,cs)
);
}
);
width = 675;
}
);
note = ampersand;
unicode = 38;
},
{
glyphname = bar;
layers = (
{
layerId = m01;
shapes = (
{
closed = 1;
nodes = (
(100,785,l),
(100,-215,l),
(174,-215,l),
(174,785,l)
);
}
);
width = 274;
}
);
note = bar;
unicode = 124;
},
{
glyphname = dollar;
layers = (
{
layerId = m01;
shapes = (
{
closed = 1;
nodes = (
(509,560,l),
(484,622,o),
(424,691,o),
(333,707,c),
(333,818,l),
(259,818,l),
(259,708,l),
(162,695,o),
(90,626,o),
(90,540,cs),
(90,413,o),
(196,363,o),
(266,338,cs),
(346,309,o),
(430,273,o),
(430,183,cs),
(430,113,o),
(390,70,o),
(310,70,cs),
(223,70,o),
(169,130,o),
(127,226,c),
(55,183,l),
(93,84,o),
(166,12,o),
(259,-6,c),
(259,-112,l),
(333,-112,l),
(333,-9,l),
(454,1,o),
(518,79,o),
(518,190,cs),
(518,317,o),
(414,369,o),
(341,396,cs),
(256,428,o),
(179,458,o),
(179,534,cs),
(179,595,o),
(214,629,o),
(294,629,cs),
(371,629,o),
(410,572,o),
(440,514,c)
);
}
);
width = 580;
}
);
note = dollar;
unicode = 36;
},
{
glyphname = plus;
layers = (
{
layerId = m01;
shapes = (
{
closed = 1;
nodes = (
(65,215,l),
(265,215,l),
(265,10,l),
(350,10,l),
(350,215,l),
(550,215,l),
(550,295,l),
(350,295,l),
(350,500,l),
(265,500,l),
(265,295,l),
(65,295,l)
);
}
);
width = 615;
}
);
note = plus;
unicode = 43;
},
{
glyphname = minus;
layers = (
{
layerId = m01;
shapes = (
{
closed = 1;
nodes = (
(70,200,l),
(520,200,l),
(520,275,l),
(70,275,l)
);
}
);
width = 590;
}
);
note = minus;
unicode = 8722;
},
{
glyphname = multiply;
kernLeft = x;
layers = (
{
layerId = m01;
shapes = (
{
closed = 1;
nodes = (
(121,22,l),
(298,204,l),
(475,22,l),
(531,78,l),
(349,255,l),
(531,432,l),
(475,488,l),
(298,306,l),
(121,488,l),
(65,432,l),
(247,255,l),
(65,78,l)
);
}
);
width = 596;
}
);
note = multiply;
unicode = 215;
},
{
glyphname = divide;
layers = (
{
layerId = m01;
shapes = (
{
closed = 1;
nodes = (
(255,420,o),
(280,395,o),
(310,395,cs),
(340,395,o),
(365,420,o),
(365,450,cs),
(365,480,o),
(340,505,o),
(310,505,cs),
(280,505,o),
(255,480,o),
(255,450,cs)
);
},
{
closed = 1;
nodes = (
(60,225,l),
(560,225,l),
(560,305,l),
(60,305,l)
);
},
{
closed = 1;
nodes = (
(255,40,o),
(280,15,o),
(310,15,cs),
(340,15,o),
(365,40,o),
(365,70,cs),
(365,100,o),
(340,125,o),
(310,125,cs),
(280,125,o),
(255,100,o),
(255,70,cs)
);
}
);
width = 623;
}
);
note = divide;
unicode = 247;
},
{
glyphname = equal;
layers = (
{
layerId = m01;
shapes = (
{
closed = 1;
nodes = (
(65,290,l),
(550,290,l),
(550,365,l),
(65,365,l)
);
},
{
closed = 1;
nodes = (
(65,140,l),
(550,140,l),
(550,215,l),
(65,215,l)
);
}
);
width = 615;
}
);
note = equal;
unicode = 61;
},
{
glyphname = greater;
layers = (
{
layerId = m01;
shapes = (
{
closed = 1;
nodes = (
(443,253,l),
(65,95,l),
(65,15,l),
(575,235,l),
(575,280,l),
(65,500,l),
(65,420,l)
);
}
);
width = 640;
}
);
note = greater;
unicode = 62;
},
{
glyphname = less;
layers = (
{
layerId = m01;
shapes = (
{
closed = 1;
nodes = (
(197,262,l),
(575,420,l),
(575,500,l),
(65,280,l),
(65,235,l),
(575,15,l),
(575,95,l)
);
}
);
width = 640;
}
);
note = less;
unicode = 60;
},
{
glyphname = asciitilde;
layers = (
{
layerId = m01;
shapes = (
{
closed = 1;
nodes = (
(142,176,l),
(139,184,o),
(138,191,o),
(138,198,cs),
(138,233,o),
(157,253,o),
(193,253,cs),
(218,253,o),
(249,243,o),
(279,220,cs),
(322,188,o),
(360,172,o),
(394,172,cs),
(430,172,o),
(462,185,o),
(488,219,cs),
(505,242,o),
(510,270,o),
(510,290,cs),
(510,300,o),
(508,310,o),
(506,318,c),
(427,323,l),
(431,313,o),
(432,304,o),
(432,296,cs),
(432,264,o),
(419,247,o),
(390,247,cs),
(372,247,o),
(347,256,o),
(317,279,cs),
(275,311,o),
(233,327,o),
(194,327,cs),
(152,327,o),
(115,310,o),
(89,275,cs),
(71,251,o),
(65,226,o),
(65,205,cs),
(65,196,o),
(66,188,o),
(68,181,c)
);
}
);
width = 575;
}
);
note = asciitilde;
unicode = 126;
},
{
glyphname = asciicircum;
layers = (
{
layerId = m01;
shapes = (
{
closed = 1;
nodes = (
(255,621,l),
(365,460,l),
(445,460,l),
(275,710,l),
(235,710,l),
(65,460,l),
(145,460,l)
);
}
);
width = 510;
}
);
note = asciicircum;
unicode = 94;
},
{
glyphname = percent;
layers = (
{
layerId = m01;
shapes = (
{
closed = 1;
nodes = (
(35,461,o),
(98,390,o),
(193,390,cs),
(288,390,o),
(351,461,o),
(351,550,cs),
(351,639,o),
(288,710,o),
(193,710,cs),
(98,710,o),
(35,639,o),
(35,550,cs)
);
},
{
closed = 1;
nodes = (
(563,700,l),
(113,0,l),
(188,0,l),
(638,700,l)
);
},
{
closed = 1;
nodes = (
(106,601,o),
(138,645,o),
(193,645,cs),
(248,645,o),
(280,601,o),
(280,550,cs),
(280,499,o),
(248,455,o),
(193,455,cs),
(138,455,o),
(106,499,o),
(106,550,cs)
);
},
{
closed = 1;
nodes = (
(400,61,o),
(463,-10,o),
(558,-10,cs),
(653,-10,o),
(716,61,o),
(716,150,cs),
(716,239,o),
(653,310,o),
(558,310,cs),
(463,310,o),
(400,239,o),
(400,150,cs)
);
},
{
closed = 1;
nodes = (
(471,201,o),
(503,245,o),
(558,245,cs),
(613,245,o),
(645,201,o),
(645,150,cs),
(645,99,o),
(613,55,o),
(558,55,cs),
(503,55,o),
(471,99,o),
(471,150,cs)
);
}
